<svg width="67" height="110" viewBox="0 0 67 110" fill="none" xmlns="http://www.w3.org/2000/svg">
                <path d="M30.243 9.00009L63.9928 39.8431C67.2147 42.7909 67.7864 47.2677 65.4367 51.2112L40.5956 92.7689C37.3961 97.9812 34.553 99.3805 30.8173 100.192L-10.9419 109.298C-16.8996 110.817 -19.6133 110.291 -23.6279 103.477L-46.6779 64.6128C-49.8618 59.0597 -49.3709 57.0808 -47.5936 51.6285L-33.2853 6.63495C-31.6351 1.34283 -28.2945 -0.342077 -24.1417 0.0557223L20.5344 4.37383C24.4167 4.79136 26.7087 5.82692 30.243 9.00009Z" fill="#EDEDED"/>
                <path d="M60.0417 39.3541L28.1434 10.1981C25.7654 7.99725 24.0983 6.70714 20.8782 6.44466L-21.0335 2.39118C-23.6607 2.05364 -25.4888 4.04242 -23.8807 6.04622L5.21392 40.9576C7.80508 43.9924 11.1667 45.453 14.6033 45.245L59.2523 43.3947C61.7446 43.3053 61.9747 41.033 60.0417 39.3541Z" fill="url(#paint0_linear_569_1500)"/>
                <path d="M-23.3256 99.4857L-45.4102 62.2468C-47.3228 58.9962 -47.1888 56.3707 -45.9197 52.4425L-32.6221 10.6408C-31.5981 7.35114 -28.9495 6.12729 -27.1526 8.16411L2.22611 43.4162C4.72163 46.3775 4.41989 50.2886 2.85314 53.842L-17.1125 99.41C-18.7125 102.924 -21.1327 103.25 -23.3256 99.4857Z" fill="url(#paint1_linear_569_1500)"/>
                <path d="M-9.20898 106.153L30.0386 97.5993C34.607 96.4734 36.1343 95.4906 38.7707 91.0067L61.965 52.1862C63.4563 49.6742 62.571 47.231 60.1188 47.2314L16.4354 49.0416C11.5911 49.2955 9.85233 50.1355 7.24316 55.4527L-12.8361 101.28C-14.6233 105.3 -12.0142 106.781 -9.20898 106.153Z" fill="url(#paint2_linear_569_1500)"/>
                <path opacity="0.3" d="M-23.6929 103.368L-23.6281 103.478C-19.6135 110.291 -16.9001 110.817 -10.9421 109.298L30.8171 100.192C34.5525 99.3808 37.3959 97.9815 40.5954 92.7692L65.4365 51.2115C66.5805 49.2913 67.0266 47.2455 66.8169 45.3105L-23.6929 103.368Z" fill="url(#paint3_linear_569_1500)"/>
                <path d="M58.987 45.4328L14.5 47.03C11.0635 47.238 6.1643 45.0352 3.57314 42.0004L-25.4741 6.95996L-26.1936 7.12423L3.05804 42.5086C5.55355 45.4699 6.31119 51.3245 4.74466 54.8779L-16.0438 100.163L-15.5295 100.529L5.51796 54.977C7.67057 51.055 11.4092 47.8462 16.2536 47.5923L59.1395 46.1249L58.987 45.4328Z" fill="#E6E6E6"/>
                <path d="M19.5037 20.7819C14.743 18.6237 10.0632 18.6844 9.05054 20.9176C8.03814 23.1509 11.0766 26.7109 15.8371 28.8693C20.5979 31.0277 25.2779 30.9668 26.2903 28.7336C27.303 26.5003 24.2645 22.9403 19.5037 20.7819Z" fill="white"/>
                <path d="M15.8332 28.8711C11.0725 26.7128 8.02303 23.1766 9.02214 20.9727C10.0213 18.7688 14.6906 18.7317 19.4514 20.89C24.2121 23.0482 27.2616 26.5845 26.2625 28.7884C25.2634 30.9923 20.594 31.0293 15.8332 28.8711Z" fill="#B3B3B3"/>
                <path d="M19.1458 21.479C14.5498 19.3952 10.0755 19.3568 9.15235 21.393C8.22916 23.4291 11.2068 26.7689 15.8028 28.8527C20.3988 30.9363 24.873 30.9749 25.7962 28.9387C26.7194 26.9025 23.7418 23.5627 19.1458 21.479Z" fill="url(#paint4_radial_569_1500)"/>
                <path d="M-9.72278 15.4387C-14.4836 13.2804 -17.5222 9.72033 -16.5097 7.48696C-15.4972 5.25359 -10.8171 5.19269 -6.05631 7.35094C-1.29553 9.50919 1.74308 13.0693 0.730608 15.3027C-0.28186 17.536 -4.962 17.5969 -9.72278 15.4387Z" fill="white"/>
                <path d="M-9.7218 15.4385C-14.4826 13.2802 -17.532 9.744 -16.5329 7.54008C-15.5338 5.33616 -10.8645 5.29914 -6.10368 7.45738C-1.34289 9.61563 1.70653 13.1519 0.707417 15.3558C-0.291701 17.5597 -4.96102 17.5967 -9.7218 15.4385Z" fill="#B3B3B3"/>
                <path d="M-6.41194 8.04634C-11.008 5.96256 -15.4822 5.92417 -16.4054 7.96035C-17.3286 9.99652 -14.351 13.3363 -9.75495 15.4201C-5.15893 17.5039 -0.684497 17.5423 0.238481 15.5061C1.16167 13.4697 -1.81592 10.1299 -6.41194 8.04634Z" fill="url(#paint5_radial_569_1500)"/>
                <path d="M43.4648 40.2297C38.704 38.0714 35.6654 34.5113 36.6779 32.278C37.6903 30.0446 42.3705 29.9837 47.1313 32.142C51.8921 34.3002 54.9307 37.8603 53.9182 40.0937C52.9057 42.327 48.2256 42.3879 43.4648 40.2297Z" fill="white"/>
                <path d="M43.4658 40.2295C38.705 38.0712 35.6556 34.535 36.6547 32.3311C37.6538 30.1272 42.3231 30.0901 47.0839 32.2484C51.8447 34.4066 54.8941 37.9429 53.895 40.1468C52.8959 42.3507 48.2266 42.3877 43.4658 40.2295Z" fill="#B3B3B3"/>
                <path d="M46.7757 32.8374C42.1796 30.7536 37.7054 30.7152 36.7822 32.7514C35.859 34.7875 38.8366 38.1276 43.4326 40.2111C48.0287 42.2949 52.5029 42.3333 53.4261 40.2971C54.3493 38.2609 51.3717 34.9211 46.7757 32.8374Z" fill="url(#paint6_radial_569_1500)"/>
                <path d="M38.7142 67.6396C36.9274 65.66 38.8786 60.9867 43.0722 57.2016C47.2658 53.4164 52.1139 51.9527 53.9006 53.9323C55.6874 55.9118 53.7363 60.5851 49.5426 64.3703C45.349 68.1554 40.501 69.6191 38.7142 67.6396Z" fill="white"/>
                <path d="M38.673 67.5741C36.8862 65.5946 38.8373 60.9213 43.031 57.1361C47.2246 53.351 52.0726 51.8872 53.8594 53.8668C55.6462 55.8464 53.695 60.5197 49.5014 64.3048C45.3078 68.09 40.4597 69.5537 38.673 67.5741Z" fill="#B3B3B3"/>
                <path d="M42.9047 56.431C38.7108 60.2162 36.7597 64.8896 38.5465 66.8694C40.3333 68.8492 45.1817 67.3853 49.3754 63.6001C53.5691 59.8149 55.5204 55.1415 53.7336 53.1617C51.9466 51.1819 47.0984 52.6455 42.9047 56.431Z" fill="url(#paint7_radial_569_1500)"/>
                <path d="M-6.62314 102.03C-8.40991 100.051 -6.45877 95.3774 -2.26515 91.5922C1.92847 87.807 6.77653 86.3433 8.56329 88.3229C10.3501 90.3025 8.39892 94.9757 4.2053 98.7609C0.011684 102.546 -4.83638 104.01 -6.62314 102.03Z" fill="white"/>
                <path d="M-6.66434 101.964C-8.45111 99.9842 -6.49996 95.311 -2.30634 91.5258C1.88728 87.7406 6.73533 86.2769 8.5221 88.2565C10.3089 90.236 8.35773 94.9093 4.16411 98.6945C-0.0295148 102.48 -4.87758 103.943 -6.66434 101.964Z" fill="#B3B3B3"/>
                <path d="M-2.43923 90.8206C-6.63295 94.6058 -8.58419 99.2792 -6.79743 101.259C-5.01066 103.239 -0.162232 101.775 4.03148 97.9898C8.2252 94.2045 10.1765 89.5311 8.38968 87.5513C6.6027 85.5715 1.75449 87.0354 -2.43923 90.8206Z" fill="url(#paint8_radial_569_1500)"/>
                <path d="M7.86862 66.9511C6.08185 64.9715 8.03299 60.2983 12.2266 56.5131C16.4202 52.7279 21.2683 51.2642 23.0551 53.2438C24.8418 55.2234 22.8907 59.8966 18.6971 63.6818C14.5034 67.467 9.65538 68.9307 7.86862 66.9511Z" fill="white"/>
                <path d="M7.82348 66.8847C6.03671 64.9051 7.98785 60.2319 12.1815 56.4467C16.3751 52.6615 21.2232 51.1978 23.0099 53.1774C24.7967 55.1569 22.8455 59.8302 18.6519 63.6154C14.4583 67.4005 9.61024 68.8643 7.82348 66.8847Z" fill="#B3B3B3"/>
                <path d="M12.0591 55.7414C7.86541 59.5266 5.91416 64.2 7.70093 66.1798C9.48769 68.1596 14.3361 66.6958 18.5298 62.9106C22.7236 59.1253 24.6748 54.4519 22.888 52.4721C21.1011 50.4926 16.2528 51.9562 12.0591 55.7414Z" fill="url(#paint9_radial_569_1500)"/>
                <path d="M23.1746 96.1337C21.3878 94.1541 23.339 89.4809 27.5326 85.6957C31.7262 81.9105 36.5743 80.4468 38.361 82.4264C40.1478 84.406 38.1967 89.0792 34.003 92.8644C29.8094 96.6496 24.9614 98.1133 23.1746 96.1337Z" fill="white"/>
                <path d="M23.1334 96.0673C21.3466 94.0877 23.2978 89.4145 27.4914 85.6293C31.685 81.8441 36.533 80.3804 38.3198 82.36C40.1066 84.3396 38.1554 89.0128 33.9618 92.798C29.7682 96.5832 24.9201 98.0469 23.1334 96.0673Z" fill="#B3B3B3"/>
                <path d="M27.3638 84.925C23.1698 88.7102 21.2188 93.3836 23.0056 95.3634C24.7923 97.3432 29.6407 95.8794 33.8345 92.0941C38.0282 88.3089 39.9794 83.6355 38.1927 81.6557C36.4057 79.6762 31.5575 81.1398 27.3638 84.925Z" fill="url(#paint10_radial_569_1500)"/>
                <defs>
                  <linearGradient id="paint0_linear_569_1500" x1="8.69445" y1="44.9347" x2="25.3452" y2="7.55532" gradientUnits="userSpaceOnUse">
                    <stop stop-color="#F7F7F7"/>
                    <stop offset="0.0404" stop-color="#F6F6F6"/>
                    <stop offset="0.5269" stop-color="#EAEAEA"/>
                    <stop offset="1" stop-color="#E6E6E6"/>
                  </linearGradient>
                  <linearGradient id="paint1_linear_569_1500" x1="4.96088" y1="48.0357" x2="-46.3321" y2="59.5422" gradientUnits="userSpaceOnUse">
                    <stop stop-color="#F7F7F7"/>
                    <stop offset="0.0404" stop-color="#F6F6F6"/>
                    <stop offset="0.5269" stop-color="#EAEAEA"/>
                    <stop offset="1" stop-color="#E6E6E6"/>
                  </linearGradient>
                  <linearGradient id="paint2_linear_569_1500" x1="58.9172" y1="44.0898" x2="-15.7167" y2="104.155" gradientUnits="userSpaceOnUse">
                    <stop stop-color="#F7F7F7"/>
                    <stop offset="0.0404" stop-color="#F6F6F6"/>
                    <stop offset="0.5269" stop-color="#EAEAEA"/>
                    <stop offset="1" stop-color="#E6E6E6"/>
                  </linearGradient>
                  <linearGradient id="paint3_linear_569_1500" x1="21.5477" y1="74.348" x2="36.5468" y2="97.7315" gradientUnits="userSpaceOnUse">
                    <stop stop-color="white"/>
                    <stop offset="1"/>
                  </linearGradient>
                  <radialGradient id="paint4_radial_569_1500" cx="0" cy="0" r="1" gradientUnits="userSpaceOnUse" gradientTransform="translate(20.6684 16.6562) rotate(39.5753) scale(13.2454 13.2454)">
                    <stop stop-color="#DAA834"/>
                    <stop offset="0.4701" stop-color="#E8C74B"/>
                    <stop offset="0.4871" stop-color="#EBCD58"/>
                    <stop offset="0.5143" stop-color="#EED466"/>
                    <stop offset="0.5485" stop-color="#F0D86E"/>
                    <stop offset="0.6113" stop-color="#F1D970"/>
                    <stop offset="0.6426" stop-color="#ECCF5C"/>
                    <stop offset="0.7064" stop-color="#DFB628"/>
                    <stop offset="0.7409" stop-color="#D8A70A"/>
                    <stop offset="0.859" stop-color="#CF901D"/>
                    <stop offset="1" stop-color="#C67830"/>
                  </radialGradient>
                  <radialGradient id="paint5_radial_569_1500" cx="0" cy="0" r="1" gradientUnits="userSpaceOnUse" gradientTransform="translate(-4.88936 3.22344) rotate(39.5753) scale(13.2454 13.2454)">
                    <stop stop-color="#DAA834"/>
                    <stop offset="0.4701" stop-color="#E8C74B"/>
                    <stop offset="0.4871" stop-color="#EBCD58"/>
                    <stop offset="0.5143" stop-color="#EED466"/>
                    <stop offset="0.5485" stop-color="#F0D86E"/>
                    <stop offset="0.6113" stop-color="#F1D970"/>
                    <stop offset="0.6426" stop-color="#ECCF5C"/>
                    <stop offset="0.7064" stop-color="#DFB628"/>
                    <stop offset="0.7409" stop-color="#D8A70A"/>
                    <stop offset="0.859" stop-color="#CF901D"/>
                    <stop offset="1" stop-color="#C67830"/>
                  </radialGradient>
                  <radialGradient id="paint6_radial_569_1500" cx="0" cy="0" r="1" gradientUnits="userSpaceOnUse" gradientTransform="translate(48.2983 28.0145) rotate(39.5753) scale(13.2454 13.2454)">
                    <stop stop-color="#DAA834"/>
                    <stop offset="0.4701" stop-color="#E8C74B"/>
                    <stop offset="0.4871" stop-color="#EBCD58"/>
                    <stop offset="0.5143" stop-color="#EED466"/>
                    <stop offset="0.5485" stop-color="#F0D86E"/>
                    <stop offset="0.6113" stop-color="#F1D970"/>
                    <stop offset="0.6426" stop-color="#ECCF5C"/>
                    <stop offset="0.7064" stop-color="#DFB628"/>
                    <stop offset="0.7409" stop-color="#D8A70A"/>
                    <stop offset="0.859" stop-color="#CF901D"/>
                    <stop offset="1" stop-color="#C67830"/>
                  </radialGradient>
                  <radialGradient id="paint7_radial_569_1500" cx="0" cy="0" r="1" gradientUnits="userSpaceOnUse" gradientTransform="translate(53.2543 67.9969) rotate(39.5753) scale(15.511 15.511)">
                    <stop stop-color="#DAA834"/>
                    <stop offset="0.4701" stop-color="#E8C74B"/>
                    <stop offset="0.4871" stop-color="#EBCD58"/>
                    <stop offset="0.5143" stop-color="#EED466"/>
                    <stop offset="0.5485" stop-color="#F0D86E"/>
                    <stop offset="0.6113" stop-color="#F1D970"/>
                    <stop offset="0.6426" stop-color="#ECCF5C"/>
                    <stop offset="0.7064" stop-color="#DFB628"/>
                    <stop offset="0.7409" stop-color="#D8A70A"/>
                    <stop offset="0.859" stop-color="#CF901D"/>
                    <stop offset="1" stop-color="#C67830"/>
                  </radialGradient>
                  <radialGradient id="paint8_radial_569_1500" cx="0" cy="0" r="1" gradientUnits="userSpaceOnUse" gradientTransform="translate(10.2715 105.493) rotate(39.5753) scale(19.4271 19.4271)">
                    <stop stop-color="#DAA834"/>
                    <stop offset="0.4701" stop-color="#E8C74B"/>
                    <stop offset="0.4871" stop-color="#EBCD58"/>
                    <stop offset="0.5143" stop-color="#EED466"/>
                    <stop offset="0.5485" stop-color="#F0D86E"/>
                    <stop offset="0.6113" stop-color="#F1D970"/>
                    <stop offset="0.6426" stop-color="#ECCF5C"/>
                    <stop offset="0.7064" stop-color="#DFB628"/>
                    <stop offset="0.7409" stop-color="#D8A70A"/>
                    <stop offset="0.859" stop-color="#CF901D"/>
                    <stop offset="1" stop-color="#C67830"/>
                  </radialGradient>
                  <radialGradient id="paint9_radial_569_1500" cx="0" cy="0" r="1" gradientUnits="userSpaceOnUse" gradientTransform="translate(21.7163 69.8009) rotate(39.5753) scale(17.0402 17.0402)">
                    <stop stop-color="#DAA834"/>
                    <stop offset="0.4701" stop-color="#E8C74B"/>
                    <stop offset="0.4871" stop-color="#EBCD58"/>
                    <stop offset="0.5143" stop-color="#EED466"/>
                    <stop offset="0.5485" stop-color="#F0D86E"/>
                    <stop offset="0.6113" stop-color="#F1D970"/>
                    <stop offset="0.6426" stop-color="#ECCF5C"/>
                    <stop offset="0.7064" stop-color="#DFB628"/>
                    <stop offset="0.7409" stop-color="#D8A70A"/>
                    <stop offset="0.859" stop-color="#CF901D"/>
                    <stop offset="1" stop-color="#C67830"/>
                  </radialGradient>
                  <radialGradient id="paint10_radial_569_1500" cx="0" cy="0" r="1" gradientUnits="userSpaceOnUse" gradientTransform="translate(38.6096 98.7088) rotate(39.5753) scale(17.9569 17.9569)">
                    <stop stop-color="#DAA834"/>
                    <stop offset="0.4701" stop-color="#E8C74B"/>
                    <stop offset="0.4871" stop-color="#EBCD58"/>
                    <stop offset="0.5143" stop-color="#EED466"/>
                    <stop offset="0.5485" stop-color="#F0D86E"/>
                    <stop offset="0.6113" stop-color="#F1D970"/>
                    <stop offset="0.6426" stop-color="#ECCF5C"/>
                    <stop offset="0.7064" stop-color="#DFB628"/>
                    <stop offset="0.7409" stop-color="#D8A70A"/>
                    <stop offset="0.859" stop-color="#CF901D"/>
                    <stop offset="1" stop-color="#C67830"/>
                  </radialGradient>
                </defs>
              </svg>