<svg width="174" height="181" viewBox="0 0 174 181" fill="none" xmlns="http://www.w3.org/2000/svg">
                  <path d="M35.7766 42.1343L95.2747 3.12373C100.96 -0.598978 107.929 0.262796 112.971 5.32396L166.064 58.7786C172.691 65.6094 173.706 70.4351 173.491 76.3798L171.141 142.847C171.138 152.415 169.3 156.304 157.482 159.733L90.0092 179.523C80.4106 182.185 77.616 180.683 70.0796 175.904L7.75051 137.007C0.40667 132.482 -0.847252 126.796 1.35149 120.688L25.0634 54.991C27.1879 49.2982 29.6318 46.2415 35.7766 42.1343Z" fill="#EDEDED"/>
                  <path d="M93.0195 8.8932L36.7783 45.7616C32.5443 48.4996 29.9572 50.5166 28.3214 55.2705L6.07267 116.901C4.55195 120.733 6.84698 124.255 10.4872 122.602L74.3267 92.1762C79.9001 89.4379 83.3968 84.9318 84.4062 79.6705L98.808 11.6391C99.6322 7.8468 96.2949 6.62518 93.0195 8.8932Z" fill="url(#paint0_linear_569_1561)"/>
                  <path opacity="0.2" d="M56.9975 105.237L97.8005 1.8125C96.9396 2.15944 96.0937 2.58886 95.2762 3.12395L35.7781 42.1345C29.6333 46.2417 27.1892 49.2984 25.065 54.9912L1.35304 120.688C0.292267 123.636 0.0462952 126.482 0.888992 129.15C1.92746 128.449 55.5014 106.288 56.9975 105.237Z" fill="url(#paint1_linear_569_1561)"/>
                  <path d="M151.582 157.743L86.9322 176.703C81.2949 178.335 77.3876 177.122 71.9537 173.696L14.0479 137.552C9.48224 134.742 8.65688 130.277 12.4195 128.352L76.8819 97.6297C82.3076 95.0071 88.0884 96.9681 92.8425 100.698L153.86 148.346C158.542 152.112 158.102 155.886 151.582 157.743Z" fill="url(#paint2_linear_569_1561)"/>
                  <path d="M167.068 139.025L169.282 76.556C169.344 69.2347 168.45 66.5534 162.705 60.8521L113.104 10.9341C109.891 7.7183 105.866 8.11279 104.923 11.81L90.8324 78.37C89.3502 85.7716 89.9472 88.7165 96.9594 94.6979L158.324 142.617C163.697 146.86 166.934 143.496 167.068 139.025Z" fill="url(#paint3_linear_569_1561)"/>
                  <path d="M101.772 12.8271L87.051 80.5166C86.0416 85.7779 80.834 92.3167 75.2606 95.0549L11.245 125.359L11.2157 126.507L75.8286 96.0274C81.2543 93.4051 90.3733 94.5169 95.1275 98.247L155.401 147.026L156.152 146.392L95.5748 97.1189C90.4902 92.3631 87.0918 85.4909 88.5744 78.0892L102.874 12.8635L101.772 12.8271Z" fill="url(#paint4_radial_569_1561)"/>
                  <path d="M44.4775 80.052C41.1443 77.3805 43.0588 69.4547 48.7537 62.3493C54.4486 55.2439 61.7673 51.6495 65.1005 54.321C68.4336 56.9925 66.5191 64.9183 60.8242 72.0237C55.1293 79.1291 47.8106 82.7235 44.4775 80.052Z" fill="white"/>
                  <path d="M44.5569 80.1147C41.2677 77.4784 43.2178 69.5812 48.9127 62.4757C54.6076 55.3703 61.8907 51.7474 65.1799 54.3837C68.4692 57.0201 66.5191 64.9173 60.8242 72.0227C55.1293 79.1281 47.8462 82.751 44.5569 80.1147Z" fill="#B3B3B3"/>
                  <path d="M49.7759 63.2489C44.2777 70.1088 42.2841 77.6443 45.3232 80.0799C48.3623 82.5158 55.2832 78.9296 60.7814 72.07C66.2796 65.2105 68.2732 57.6747 65.2341 55.239C62.195 52.8031 55.2741 56.3894 49.7759 63.2489Z" fill="url(#paint5_radial_569_1561)"/>
                  <path d="M113.381 41.3667C117.474 49.1473 123.769 53.8885 127.441 51.9568C131.114 50.0249 130.774 42.1515 126.682 34.3709C122.589 26.5903 116.294 21.8491 112.621 23.7807C108.949 25.7124 109.289 33.586 113.381 41.3667Z" fill="white"/>
                  <path d="M113.274 41.4034C109.181 33.6232 108.841 25.7501 112.514 23.8183C116.187 21.8865 122.481 26.6276 126.574 34.4078C130.666 42.188 131.006 50.0611 127.333 51.9929C123.661 53.9247 117.366 49.1836 113.274 41.4034Z" fill="#B3B3B3"/>
                  <path d="M112.162 41.312C116.255 49.0926 122.55 53.8338 126.222 51.9022C129.895 49.9702 129.555 42.0968 125.463 34.3162C121.37 26.5356 115.075 21.7944 111.402 23.726C107.73 25.658 108.07 33.5313 112.162 41.312Z" fill="url(#paint6_radial_569_1561)"/>
                  <path d="M130.317 82.4503C126.225 74.6701 125.885 66.797 129.557 64.8652C133.23 62.9334 139.525 67.6745 143.617 75.4547C147.709 83.2349 148.05 91.108 144.377 93.0398C140.704 94.9716 134.409 90.2305 130.317 82.4503Z" fill="white"/>
                  <path d="M130.204 82.4874C126.112 74.7072 125.771 66.8341 129.444 64.9023C133.117 62.9705 139.412 67.7116 143.504 75.4918C147.596 83.272 147.936 91.1451 144.264 93.0769C140.591 95.0087 134.296 90.2676 130.204 82.4874Z" fill="#B3B3B3"/>
                  <path d="M129.092 82.3969C133.185 90.1775 139.479 94.9188 143.153 92.9871C146.825 91.0552 146.485 83.1818 142.393 75.4012C138.3 67.6206 132.006 62.8793 128.333 64.811C124.66 66.7429 125 74.6163 129.092 82.3969Z" fill="url(#paint7_radial_569_1561)"/>
                  <path d="M147.789 122.961C143.696 115.181 143.356 107.308 147.029 105.376C150.702 103.444 156.996 108.185 161.089 115.965C165.181 123.746 165.521 131.619 161.848 133.551C158.176 135.482 151.881 130.741 147.789 122.961Z" fill="white"/>
                  <path d="M147.659 122.999C151.751 130.78 158.046 135.521 161.719 133.59C165.392 131.658 165.052 123.784 160.96 116.004C156.867 108.223 150.572 103.482 146.899 105.414C143.226 107.345 143.567 115.219 147.659 122.999Z" fill="#B3B3B3"/>
                  <path d="M146.557 122.909C150.65 130.689 156.945 135.43 160.617 133.499C164.29 131.567 163.95 123.694 159.858 115.913C155.765 108.132 149.471 103.391 145.797 105.323C142.125 107.255 142.465 115.128 146.557 122.909Z" fill="url(#paint8_radial_569_1561)"/>
                  <path d="M100.488 87.6066C96.3955 79.8264 96.0553 71.9532 99.728 70.0214C103.401 68.0896 109.695 72.8307 113.788 80.6109C117.88 88.3911 118.22 96.2643 114.547 98.1961C110.875 100.128 104.58 95.3868 100.488 87.6066Z" fill="white"/>
                  <path d="M100.371 87.6427C96.2783 79.8625 95.9381 71.9894 99.6108 70.0576C103.283 68.1258 109.578 72.8669 113.67 80.6471C117.763 88.4273 118.103 96.3004 114.43 98.2322C110.758 100.164 104.463 95.4229 100.371 87.6427Z" fill="#B3B3B3"/>
                  <path d="M99.2522 87.5493C103.345 95.3299 109.64 100.071 113.313 98.1394C116.985 96.2075 116.645 88.3341 112.553 80.5535C108.46 72.7729 102.166 68.0317 98.4928 69.9633C94.8197 71.8953 95.1596 79.7687 99.2522 87.5493Z" fill="url(#paint9_radial_569_1561)"/>
                  <path d="M150.371 75.7618C146.279 67.9816 145.938 60.1085 149.611 58.1767C153.284 56.2449 159.579 60.986 163.671 68.7662C167.763 76.5464 168.103 84.4195 164.431 86.3513C160.758 88.2831 154.463 83.542 150.371 75.7618Z" fill="white"/>
                  <path d="M150.258 75.7989C146.165 68.0187 145.825 60.1456 149.498 58.2138C153.171 56.282 159.465 61.0231 163.558 68.8033C167.65 76.5835 167.99 84.4567 164.317 86.3884C160.645 88.3202 154.35 83.5792 150.258 75.7989Z" fill="#B3B3B3"/>
                  <path d="M149.146 75.7084C153.239 83.4891 159.533 88.2303 163.206 86.2986C166.879 84.3667 166.539 76.4933 162.447 68.7127C158.354 60.9321 152.059 56.1909 148.387 58.1225C144.714 60.0545 145.054 67.9278 149.146 75.7084Z" fill="url(#paint10_radial_569_1561)"/>
                  <path d="M32.5387 143.346C24.1888 140.596 18.4639 135.197 19.7516 131.287C21.0394 127.377 28.8522 126.436 37.202 129.186C45.5519 131.936 51.2769 137.335 49.9891 141.245C48.7014 145.155 40.8886 146.096 32.5387 143.346Z" fill="white"/>
                  <path d="M32.558 143.185C40.908 145.935 48.7212 144.994 50.0088 141.084C51.2965 137.173 45.5714 131.774 37.2214 129.024C28.8714 126.275 21.0582 127.215 19.7705 131.126C18.4825 135.036 24.2076 140.435 32.558 143.185Z" fill="#B3B3B3"/>
                  <path d="M32.3721 142.019C40.7222 144.769 48.479 143.999 49.6971 140.299C50.9152 136.6 45.1338 131.372 36.7837 128.622C28.4337 125.872 20.6769 126.642 19.4588 130.341C18.2407 134.041 24.0221 139.269 32.3721 142.019Z" fill="url(#paint11_radial_569_1561)"/>
                  <path d="M130.577 156.247C138.927 158.997 146.74 158.057 148.028 154.146C149.315 150.236 143.59 144.837 135.24 142.087C126.89 139.337 119.077 140.278 117.789 144.188C116.501 148.098 122.227 153.497 130.577 156.247Z" fill="white"/>
                  <path d="M130.591 156.074C122.241 153.324 116.516 147.925 117.804 144.014C119.092 140.104 126.904 139.164 135.254 141.913C143.604 144.663 149.329 150.062 148.041 153.973C146.754 157.883 138.941 158.823 130.591 156.074Z" fill="#B3B3B3"/>
                  <path d="M130.415 154.912C138.765 157.662 146.521 156.892 147.74 153.193C148.958 149.494 143.176 144.265 134.826 141.515C126.476 138.766 118.719 139.535 117.501 143.235C116.283 146.934 122.065 152.162 130.415 154.912Z" fill="url(#paint12_radial_569_1561)"/>
                  <path d="M79.4081 149.382C87.7581 152.132 95.571 151.191 96.8589 147.281C98.1466 143.371 92.4215 137.971 84.0715 135.222C75.7215 132.472 67.9083 133.413 66.6206 137.323C65.3329 141.233 71.058 146.632 79.4081 149.382Z" fill="white"/>
                  <path d="M79.4245 149.214C87.7746 151.964 95.5878 151.023 96.8754 147.113C98.1631 143.203 92.438 137.804 84.088 135.054C75.7379 132.304 67.925 133.245 66.6371 137.155C65.3494 141.065 71.0745 146.464 79.4245 149.214Z" fill="#B3B3B3"/>
                  <path d="M79.2419 148.048C87.592 150.798 95.3488 150.028 96.5669 146.329C97.7853 142.629 92.0036 137.401 83.6535 134.651C75.3035 131.902 67.5467 132.671 66.3286 136.37C65.1105 140.07 70.8919 145.298 79.2419 148.048Z" fill="url(#paint13_radial_569_1561)"/>
                  <defs>
                    <linearGradient id="paint0_linear_569_1561" x1="81.6634" y1="88.4596" x2="31.7159" y2="48.9631" gradientUnits="userSpaceOnUse">
                      <stop stop-color="#F7F7F7"/>
                      <stop offset="0.0404" stop-color="#F6F6F6"/>
                      <stop offset="0.5269" stop-color="#EAEAEA"/>
                      <stop offset="1" stop-color="#E6E6E6"/>
                    </linearGradient>
                    <linearGradient id="paint1_linear_569_1561" x1="23.618" y1="51.5103" x2="69.5776" y2="76.4684" gradientUnits="userSpaceOnUse">
                      <stop/>
                      <stop offset="0.0962" stop-color="#272727"/>
                      <stop offset="0.2941" stop-color="#737373"/>
                      <stop offset="0.471" stop-color="#AFAFAF"/>
                      <stop offset="0.6204" stop-color="#DBDBDB"/>
                      <stop offset="0.7364" stop-color="#F5F5F5"/>
                      <stop offset="0.8049" stop-color="white"/>
                    </linearGradient>
                    <linearGradient id="paint2_linear_569_1561" x1="77.0943" y1="93.2302" x2="88.9753" y2="184.5" gradientUnits="userSpaceOnUse">
                      <stop stop-color="#F7F7F7"/>
                      <stop offset="0.0404" stop-color="#F6F6F6"/>
                      <stop offset="0.5269" stop-color="#EAEAEA"/>
                      <stop offset="1" stop-color="#E6E6E6"/>
                    </linearGradient>
                    <linearGradient id="paint3_linear_569_1561" x1="99.7231" y1="12.4124" x2="161.55" y2="148.067" gradientUnits="userSpaceOnUse">
                      <stop stop-color="#F7F7F7"/>
                      <stop offset="0.0404" stop-color="#F6F6F6"/>
                      <stop offset="0.5269" stop-color="#EAEAEA"/>
                      <stop offset="1" stop-color="#E6E6E6"/>
                    </linearGradient>
                    <radialGradient id="paint4_radial_569_1561" cx="0" cy="0" r="1" gradientUnits="userSpaceOnUse" gradientTransform="translate(86.7559 110.43) rotate(-36.0999) scale(70.2622 70.2622)">
                      <stop stop-color="white"/>
                      <stop offset="1" stop-color="#E6E6E6"/>
                    </radialGradient>
                    <radialGradient id="paint5_radial_569_1561" cx="0" cy="0" r="1" gradientUnits="userSpaceOnUse" gradientTransform="translate(42.2916 58.6002) rotate(-36.0999) scale(23.0745 23.0745)">
                      <stop stop-color="#DAA834"/>
                      <stop offset="0.4701" stop-color="#E8C74B"/>
                      <stop offset="0.4871" stop-color="#EBCD58"/>
                      <stop offset="0.5143" stop-color="#EED466"/>
                      <stop offset="0.5485" stop-color="#F0D86E"/>
                      <stop offset="0.6113" stop-color="#F1D970"/>
                      <stop offset="0.6426" stop-color="#ECCF5C"/>
                      <stop offset="0.7064" stop-color="#DFB628"/>
                      <stop offset="0.7409" stop-color="#D8A70A"/>
                      <stop offset="0.859" stop-color="#CF901D"/>
                      <stop offset="1" stop-color="#C67830"/>
                    </radialGradient>
                    <radialGradient id="paint6_radial_569_1561" cx="0" cy="0" r="1" gradientUnits="userSpaceOnUse" gradientTransform="translate(133.586 30.1605) rotate(-36.0999) scale(24.1369 24.1369)">
                      <stop stop-color="#DAA834"/>
                      <stop offset="0.4701" stop-color="#E8C74B"/>
                      <stop offset="0.4871" stop-color="#EBCD58"/>
                      <stop offset="0.5143" stop-color="#EED466"/>
                      <stop offset="0.5485" stop-color="#F0D86E"/>
                      <stop offset="0.6113" stop-color="#F1D970"/>
                      <stop offset="0.6426" stop-color="#ECCF5C"/>
                      <stop offset="0.7064" stop-color="#DFB628"/>
                      <stop offset="0.7409" stop-color="#D8A70A"/>
                      <stop offset="0.859" stop-color="#CF901D"/>
                      <stop offset="1" stop-color="#C67830"/>
                    </radialGradient>
                    <radialGradient id="paint7_radial_569_1561" cx="0" cy="0" r="1" gradientUnits="userSpaceOnUse" gradientTransform="translate(153.089 71.1711) rotate(-36.0999) scale(26.2577 26.2577)">
                      <stop stop-color="#DAA834"/>
                      <stop offset="0.4701" stop-color="#E8C74B"/>
                      <stop offset="0.4871" stop-color="#EBCD58"/>
                      <stop offset="0.5143" stop-color="#EED466"/>
                      <stop offset="0.5485" stop-color="#F0D86E"/>
                      <stop offset="0.6113" stop-color="#F1D970"/>
                      <stop offset="0.6426" stop-color="#ECCF5C"/>
                      <stop offset="0.7064" stop-color="#DFB628"/>
                      <stop offset="0.7409" stop-color="#D8A70A"/>
                      <stop offset="0.859" stop-color="#CF901D"/>
                      <stop offset="1" stop-color="#C67830"/>
                    </radialGradient>
                    <radialGradient id="paint8_radial_569_1561" cx="0" cy="0" r="1" gradientUnits="userSpaceOnUse" gradientTransform="translate(173.573 109.393) rotate(-36.0999) scale(30.2309 30.2309)">
                      <stop stop-color="#054634"/>
                      <stop offset="0.4701" stop-color="#E8C74B"/>
                      <stop offset="0.4871" stop-color="#EBCD58"/>
                      <stop offset="0.5143" stop-color="#EED466"/>
                      <stop offset="0.5485" stop-color="#F0D86E"/>
                      <stop offset="0.6113" stop-color="#F1D970"/>
                      <stop offset="0.6426" stop-color="#ECCF5C"/>
                      <stop offset="0.7064" stop-color="#DFB628"/>
                      <stop offset="0.7409" stop-color="#D8A70A"/>
                      <stop offset="0.859" stop-color="#CF901D"/>
                      <stop offset="1" stop-color="#C67830"/>
                    </radialGradient>
                    <radialGradient id="paint9_radial_569_1561" cx="0" cy="0" r="1" gradientUnits="userSpaceOnUse" gradientTransform="translate(124.168 78.4017) rotate(-36.0999) scale(26.5166 26.5166)">
                      <stop stop-color="#DAA834"/>
                      <stop offset="0.4701" stop-color="#E8C74B"/>
                      <stop offset="0.4871" stop-color="#EBCD58"/>
                      <stop offset="0.5143" stop-color="#EED466"/>
                      <stop offset="0.5485" stop-color="#F0D86E"/>
                      <stop offset="0.6113" stop-color="#F1D970"/>
                      <stop offset="0.6426" stop-color="#ECCF5C"/>
                      <stop offset="0.7064" stop-color="#DFB628"/>
                      <stop offset="0.7409" stop-color="#D8A70A"/>
                      <stop offset="0.859" stop-color="#CF901D"/>
                      <stop offset="1" stop-color="#C67830"/>
                    </radialGradient>
                    <radialGradient id="paint10_radial_569_1561" cx="0" cy="0" r="1" gradientUnits="userSpaceOnUse" gradientTransform="translate(174.258 64.0596) rotate(-36.0999) scale(27.943 27.943)">
                      <stop stop-color="#DAA834"/>
                      <stop offset="0.4701" stop-color="#E8C74B"/>
                      <stop offset="0.4871" stop-color="#EBCD58"/>
                      <stop offset="0.5143" stop-color="#EED466"/>
                      <stop offset="0.5485" stop-color="#F0D86E"/>
                      <stop offset="0.6113" stop-color="#F1D970"/>
                      <stop offset="0.6426" stop-color="#ECCF5C"/>
                      <stop offset="0.7064" stop-color="#DFB628"/>
                      <stop offset="0.7409" stop-color="#D8A70A"/>
                      <stop offset="0.859" stop-color="#CF901D"/>
                      <stop offset="1" stop-color="#C67830"/>
                    </radialGradient>
                    <radialGradient id="paint11_radial_569_1561" cx="0" cy="0" r="1" gradientUnits="userSpaceOnUse" gradientTransform="translate(33.9845 155.031) rotate(-36.0999) scale(25.5614 25.5614)">
                      <stop stop-color="#DAA834"/>
                      <stop offset="0.4701" stop-color="#E8C74B"/>
                      <stop offset="0.4871" stop-color="#EBCD58"/>
                      <stop offset="0.5143" stop-color="#EED466"/>
                      <stop offset="0.5485" stop-color="#F0D86E"/>
                      <stop offset="0.6113" stop-color="#F1D970"/>
                      <stop offset="0.6426" stop-color="#ECCF5C"/>
                      <stop offset="0.7064" stop-color="#DFB628"/>
                      <stop offset="0.7409" stop-color="#D8A70A"/>
                      <stop offset="0.859" stop-color="#CF901D"/>
                      <stop offset="1" stop-color="#C67830"/>
                    </radialGradient>
                    <radialGradient id="paint12_radial_569_1561" cx="0" cy="0" r="1" gradientUnits="userSpaceOnUse" gradientTransform="translate(129.19 168.333) rotate(-36.0999) scale(26.7453 26.7453)">
                      <stop stop-color="#DAA834"/>
                      <stop offset="0.4701" stop-color="#E8C74B"/>
                      <stop offset="0.4871" stop-color="#EBCD58"/>
                      <stop offset="0.5143" stop-color="#EED466"/>
                      <stop offset="0.5485" stop-color="#F0D86E"/>
                      <stop offset="0.6113" stop-color="#F1D970"/>
                      <stop offset="0.6426" stop-color="#ECCF5C"/>
                      <stop offset="0.7064" stop-color="#DFB628"/>
                      <stop offset="0.7409" stop-color="#D8A70A"/>
                      <stop offset="0.859" stop-color="#CF901D"/>
                      <stop offset="1" stop-color="#C67830"/>
                    </radialGradient>
                    <radialGradient id="paint13_radial_569_1561" cx="0" cy="0" r="1" gradientUnits="userSpaceOnUse" gradientTransform="translate(76.7342 161.057) rotate(-36.0999) scale(26.3327 26.3327)">
                      <stop stop-color="#DAA834"/>
                      <stop offset="0.4701" stop-color="#E8C74B"/>
                      <stop offset="0.4871" stop-color="#EBCD58"/>
                      <stop offset="0.5143" stop-color="#EED466"/>
                      <stop offset="0.5485" stop-color="#F0D86E"/>
                      <stop offset="0.6113" stop-color="#F1D970"/>
                      <stop offset="0.6426" stop-color="#ECCF5C"/>
                      <stop offset="0.7064" stop-color="#DFB628"/>
                      <stop offset="0.7409" stop-color="#D8A70A"/>
                      <stop offset="0.859" stop-color="#CF901D"/>
                      <stop offset="1" stop-color="#C67830"/>
                    </radialGradient>
                  </defs>
                </svg>