<svg class="d-none d-sm-block mb-1" width="160" height="7" viewBox="0 0 160 7" fill="none"
                              xmlns="http://www.w3.org/2000/svg">
                              <g clip-path="url(#clip0_569_2088)">
                                <rect y="0.25" width="160" height="6" rx="3" fill="#FFEC4A" />
                                <rect opacity="0.3" x="143.605" y="-2.66406" width="10" height="24"
                                  transform="rotate(14.5171 143.605 -2.66406)" fill="#0F1926" fill-opacity="0.2" />
                                <rect opacity="0.3" x="158.605" y="-2.66406" width="10" height="24"
                                  transform="rotate(14.5171 158.605 -2.66406)" fill="#0F1926" fill-opacity="0.2" />
                                <rect opacity="0.3" x="129.016" y="-2.66406" width="10" height="24"
                                  transform="rotate(14.5171 129.016 -2.66406)" fill="#0F1926" fill-opacity="0.2" />
                                <rect opacity="0.3" x="112.605" y="-2.66406" width="10" height="24"
                                  transform="rotate(14.5171 112.605 -2.66406)" fill="#0F1926" fill-opacity="0.2" />
                                <rect opacity="0.3" x="96.0156" y="-2.66406" width="10" height="24"
                                  transform="rotate(14.5171 96.0156 -2.66406)" fill="#0F1926" fill-opacity="0.2" />
                                <rect opacity="0.3" x="81.6055" y="-2.66406" width="10" height="24"
                                  transform="rotate(14.5171 81.6055 -2.66406)" fill="#0F1926" fill-opacity="0.2" />
                                <rect opacity="0.3" x="67.0156" y="-2.66406" width="10" height="24"
                                  transform="rotate(14.5171 67.0156 -2.66406)" fill="#0F1926" fill-opacity="0.2" />
                                <rect opacity="0.3" x="50.6055" y="-2.66406" width="10" height="24"
                                  transform="rotate(14.5171 50.6055 -2.66406)" fill="#0F1926" fill-opacity="0.2" />
                                <rect opacity="0.3" x="34.0156" y="-2.66406" width="10" height="24"
                                  transform="rotate(14.5171 34.0156 -2.66406)" fill="#0F1926" fill-opacity="0.2" />
                                <rect opacity="0.3" x="19.6055" y="-2.75" width="10" height="24"
                                  transform="rotate(14.5171 19.6055 -2.75)" fill="#0F1926" fill-opacity="0.2" />
                                <rect opacity="0.3" x="3.01562" y="-2.66406" width="10" height="24"
                                  transform="rotate(14.5171 3.01562 -2.66406)" fill="#0F1926" fill-opacity="0.2" />
                              </g>
                              <defs>
                                <clipPath id="clip0_569_2088">
                                  <rect y="0.25" width="160" height="6" rx="3" fill="white" />
                                </clipPath>
                              </defs>
                            </svg>