<svg width="100" height="100" viewBox="0 0 61 74" fill="none" xmlns="http://www.w3.org/2000/svg">
            <path
              d="M59.6953 20.6793C58.3231 21.1835 56.8529 21.2353 55.4558 20.8286C54.0587 20.4219 52.7921 19.5734 51.8035 18.382C50.8149 17.1906 50.1449 15.7052 49.8715 14.0987C49.5981 12.4921 49.7325 10.8306 50.2592 9.30734L30.4933 0.5L10.7003 9.30734C11.2237 10.8275 11.3567 12.4848 11.0841 14.0872C10.8114 15.6897 10.1441 17.1717 9.15952 18.3617C8.17494 19.5517 6.91332 20.4009 5.52078 20.8111C4.12825 21.2213 2.66176 21.1756 1.29117 20.6793C-1.57894 34.3856 -2.51985 61.6139 30.4933 73.7C63.4996 61.6139 62.5655 34.3856 59.6953 20.6793Z"
              fill="url(#paint0_linear_569_1653)" />
            <defs>
              <linearGradient id="paint0_linear_569_1653" x1="-9.05208" y1="-33.0708" x2="65.3546" y2="64.9605"
                gradientUnits="userSpaceOnUse">
                <stop stop-color="#AF6517" />
                <stop offset="0.26" stop-color="#E0A03B" />
                <stop offset="0.48" stop-color="#E9FF88" />
                <stop offset="0.64" stop-color="#E0A03B" />
                <stop offset="1" stop-color="#88390B" />
              </linearGradient>
            </defs>
          </svg>